<!-- Generated by IcoMoon.io -->
<svg version="1.1" xmlns="http://www.w3.org/2000/svg" width="2248" height="1024" viewBox="0 0 2248 1024">
<g id="icomoon-ignore">
</g>
<path fill="#4b688d" d="M638.039 1003.082c-0.009 0-0.020 0-0.030 0-6.167 0-12.16-0.747-17.893-2.154l0.513 0.106c-6.18-1.294-11.662-3.42-16.661-6.29l0.274 0.145c-4.808-3.071-8.876-6.815-12.208-11.154l-0.082-0.112c-2.583-3.551-4.974-7.582-6.976-11.834l-0.193-0.456c-1.473-2.86-2.862-6.252-3.969-9.77l-0.128-0.471c0-2.048-1.024-3.072-1.024-4.097-0.695-3.195-1.093-6.866-1.093-10.631 0-0.944 0.025-1.882 0.074-2.813l-0.006 0.13c1.226-22.008 7.534-42.302 17.759-60.056l-0.348 0.655c16.274-29.676 33.233-55.132 52.103-79.010l-0.895 1.174c10.242-13.314 21.507-26.628 31.749-38.918s19.459-23.556 28.676-32.773 16.386-17.411 23.556-24.58 11.266-11.266 14.338-13.314c6.3-6.144 13.352-11.567 20.992-16.103l0.515-0.283c4.68-3.034 10.21-5.198 16.151-6.115l0.235-0.030c0.231-0.009 0.501-0.015 0.773-0.015 5.213 0 9.971 1.947 13.586 5.154l-0.021-0.018c4.434 3.958 7.211 9.688 7.211 16.068 0 0.472-0.015 0.941-0.045 1.406l0.003-0.063c-0.418 4.165-1.508 7.981-3.162 11.478l0.090-0.212c-1.24 3.995-2.63 7.386-4.274 10.627l0.177-0.385c-1.769 3.656-3.474 6.674-5.339 9.58l0.218-0.363c-0.331 0.796-0.68 1.818-0.974 2.863l-0.050 0.209v1.024c-11.266 15.362-22.531 30.725-34.821 46.087s-23.556 28.676-35.845 41.99-25.604 25.604-35.845 36.87-19.459 21.507-28.676 29.701-14.338 14.338-19.459 19.459l-11.266 9.217c-2.048 2.048-4.097 4.097-7.169 7.169s-6.145 5.121-10.242 7.169l-9.217 6.145c-0.045 0.613-0.071 1.327-0.071 2.048s0.026 1.435 0.076 2.143l-0.005-0.095c-0.044 0.613-0.068 1.327-0.068 2.048s0.025 1.435 0.074 2.144l-0.005-0.096c-0.138 1.229-0.216 2.653-0.216 4.097s0.079 2.867 0.232 4.27l-0.015-0.173v1.024c0.397 1.137 0.752 2.515 1 3.931l0.024 0.166c1.429 4.328 3.523 8.073 6.193 11.327l-0.048-0.061c3.354 4.171 7.438 7.601 12.081 10.138l0.209 0.104c4.769 2.613 10.449 4.151 16.489 4.151 0.685 0 1.365-0.020 2.040-0.059l-0.093 0.004c4.391-0.063 8.64-0.433 12.795-1.090l-0.505 0.066c6.1-0.772 11.634-2.209 16.86-4.261l-0.473 0.164c7.047-2.97 13.111-6.402 18.715-10.434l-0.28 0.192c7.291-5.229 13.666-10.954 19.362-17.301l0.097-0.11c4.339-4.867 8.388-10.219 11.991-15.883l0.299-0.503c3.465-5.294 6.568-11.372 8.999-17.781l0.218-0.654c-3.942-2.92-7.321-6.3-10.15-10.113l-0.092-0.129c-2.989-3.868-5.717-8.234-7.992-12.862l-0.201-0.452c-1.422-3.27-2.498-7.068-3.046-11.036l-0.026-0.23c0-3.072 0-5.121 0-6.145-0.015-0.317-0.023-0.688-0.023-1.061 0-6.784 2.748-12.926 7.192-17.374v0c3.795-4.464 9.171-7.481 15.253-8.183l0.109-0.010c0.205-0.007 0.447-0.012 0.689-0.012 7.546 0 14.139 4.081 17.694 10.157l0.052 0.097c3.322 6.043 5.275 13.243 5.275 20.899 0 1.295-0.056 2.578-0.166 3.846l0.011-0.165c0 5.121 0 10.242 0 14.338s0 6.145-1.024 8.193c4.541 1.893 9.812 3.016 15.34 3.072h0.022c7.846-0.094 15.232-1.974 21.798-5.252l-0.291 0.131c7.434-3.055 13.851-6.84 19.631-11.397l-0.172 0.131h1.024c1.314-0.658 2.863-1.043 4.503-1.043 0.217 0 0.433 0.007 0.647 0.020l-0.029-0.001c5.199 0.538 9.217 4.895 9.217 10.191 0 0.018 0 0.036 0 0.054v-0.003c-0.041 2.811-1.209 5.342-3.070 7.167l-0.002 0.002c-7.331 6.534-15.78 12.031-24.986 16.14l-0.618 0.246c-7.943 3.243-17.161 5.126-26.817 5.126-0.294 0-0.587-0.002-0.88-0.005h0.045c-0.898 0.041-1.95 0.064-3.008 0.064-4.366 0-8.639-0.396-12.787-1.154l0.433 0.066c-2.783-0.572-5.185-1.278-7.5-2.158l0.331 0.11c-3.481 9.405-7.621 17.513-12.574 25.039l0.284-0.459c-5.892 9.367-12.667 17.445-20.392 24.498l-0.091 0.082c-6.812 5.523-14.563 10.321-22.889 14.070l-0.666 0.268c-5.997 2.965-13.131 5.752-20.522 7.942l-0.985 0.251c-4.608 1.644-10.124 3.068-15.799 4.016l-0.587 0.081zM782.445 693.787c-3.144 0.849-5.884 2.259-8.239 4.132l0.046-0.035c-6.018 4.632-11.363 9.327-16.39 14.342l0.004-0.004c-3.072 3.072-8.193 7.169-14.338 14.338s-15.362 14.338-23.556 24.58-17.411 20.483-27.652 31.749-19.459 24.58-28.676 36.87c-20.014 24.478-38.060 52.015-53.066 81.364l-1.214 2.616 5.121-4.097c2.27-3.021 4.621-5.697 7.157-8.181l0.012-0.012 20.483-19.459 27.652-29.701c10.242-11.266 21.507-22.531 33.797-35.845s22.531-26.628 34.821-41.99 22.531-28.676 33.797-45.063l1.024-2.048c2.598-3.281 4.98-6.973 6.992-10.886l0.177-0.38c1.296-2.895 2.051-6.275 2.051-9.831 0-0.144-0.001-0.288-0.004-0.432v0.022c0.055-0.308 0.086-0.662 0.086-1.024s-0.031-0.716-0.091-1.061l0.005 0.037zM727.14 868.917c-2.048 0-2.048 0-2.048 0-1.053 1.436-1.781 3.174-2.041 5.062l-0.007 0.059c-0.050 0.613-0.079 1.327-0.079 2.048s0.029 1.435 0.085 2.141l-0.006-0.093c0.811 2.344 1.851 4.376 3.128 6.231l-0.056-0.086c0.746 2.723 1.796 5.107 3.14 7.288l-0.068-0.119c0-3.072 0-6.145 0-9.217s0-3.072 0-5.121c-0.157-1.883-0.52-3.625-1.070-5.28l0.046 0.159c-0.572-1.174-1.255-2.184-2.059-3.085l0.011 0.013zM947.334 1001.033c-0.030 0-0.066 0-0.102 0-7.592 0-14.649-2.295-20.513-6.229l0.133 0.084c-6.232-4.301-10.265-11.404-10.265-19.448 0-0.364 0.008-0.726 0.025-1.087l-0.002 0.051c0.321-9.354 2.552-18.112 6.315-26l-0.17 0.396-7.169 5.121c-10.466 8.363-22.194 16.169-34.58 22.923l-1.265 0.632c-6.681 3.699-14.775 7.486-23.126 10.763l-1.454 0.503c-4.953 1.812-11.128 3.578-17.451 4.943l-0.984 0.178c-3.388 0.824-7.57 1.545-11.831 2.008l-0.459 0.040h-10.242c-0.204 0.004-0.443 0.007-0.684 0.007-4.166 0-8.155-0.753-11.839-2.131l0.233 0.076c-4.864-1.78-8.986-4.585-12.269-8.17l-0.021-0.023c-3.845-4.585-6.181-10.549-6.181-17.058 0-0.484 0.013-0.966 0.038-1.444l-0.003 0.067c1.404-14.943 6.175-28.53 13.54-40.33l-0.226 0.388c12.254-22.806 24.134-41.888 37.055-60.181l-1.209 1.804c7.169-10.242 12.29-17.411 17.411-23.556s8.193-11.266 10.242-15.362 5.121-5.121 6.145-7.169c1.827-1.863 4.358-3.031 7.161-3.072h0.008c5.215 0.52 9.253 4.886 9.253 10.194 0 2.338-0.783 4.494-2.102 6.217l0.018-0.025c-7.169 10.242-14.338 18.435-19.459 26.628s-12.29 17.411-19.459 27.652-12.29 19.459-18.435 28.676c-4.622 7.562-9.41 16.635-13.666 26.001l-0.672 1.651c-2.736 5.363-4.567 11.627-5.109 18.256l-0.012 0.179c0 6.145 1.024 7.169 2.048 7.169 3.161 1.93 6.987 3.073 11.080 3.073 0.066 0 0.131 0 0.196-0.001h-0.010c5.163-0.156 10.082-0.894 14.789-2.15l-0.451 0.102c6.565-1.257 12.071-2.675 17.446-4.388l-1.059 0.291c5.297-2.051 9.68-4.116 13.901-6.442l-0.587 0.297 10.242-5.121c15.341-8.389 28.398-16.868 40.773-26.204l-0.831 0.6c18.927-14.299 35.664-29.412 50.995-45.856l0.213-0.231 32.773-40.966c5.121-6.145 11.266-13.314 17.411-21.507l4.097-6.145 15.362 13.314-4.097 6.145c-7.169 9.217-15.362 18.435-23.556 28.676s-16.386 19.459-23.556 29.701-14.338 19.459-21.507 28.676c-6.105 8.804-11.91 18.88-16.866 29.433l-0.545 1.291c-2.456 5.418-3.95 11.734-4.096 18.382l-0.001 0.053c0 4.097 0 8.193 10.242 8.193 7.4-0.083 14.428-1.58 20.857-4.234l-0.374 0.137c9.44-4.032 17.518-8.487 25.085-13.638l-0.505 0.324c11.088-6.691 20.445-13.111 29.417-20.006l-0.741 0.547c10.242-8.193 20.483-16.386 29.701-26.628v0h1.024c1.715-1.22 3.835-1.976 6.128-2.048h0.017c0.017 0 0.037 0 0.057 0 5.091 0 9.217 4.127 9.217 9.217 0 0.361-0.021 0.717-0.061 1.067l0.004-0.043c0.003 0.088 0.005 0.191 0.005 0.295 0 2.728-1.185 5.179-3.068 6.867l-0.009 0.008c-9.535 9.487-19.549 18.528-29.988 27.068l-0.737 0.584c-8.946 7.174-18.971 14.264-29.412 20.748l-1.312 0.759c-8.363 4.76-18.166 9.252-28.37 12.899l-1.33 0.415c-7.814 3.223-16.866 5.415-26.33 6.127l-0.298 0.018zM1122.464 1004.106c-5.999-0.125-11.621-1.625-16.599-4.196l0.212 0.099c-5.335-2.721-9.568-6.955-12.217-12.134l-0.073-0.156c-2.417-4.118-3.916-9.034-4.096-14.286l-0.001-0.052c0.635-12.692 6.429-23.916 15.311-31.705l0.051-0.044c12.196-11.288 26.43-20.597 42.053-27.286l0.961-0.366c0.023-1.195 0.037-2.604 0.037-4.017 0-7.602-0.385-15.114-1.137-22.518l0.077 0.931c0-5.121-1.024-10.242-2.048-15.362l-15.362 14.338-24.58 20.483-25.604 23.556c-1.701 1.306-3.862 2.093-6.205 2.093-0.339 0-0.675-0.017-1.006-0.049l0.042 0.003c-0.327 0.041-0.705 0.065-1.089 0.065-5.091 0-9.217-4.127-9.217-9.217 0-0.384 0.023-0.762 0.069-1.133l-0.004 0.045c0.305-2.432 1.423-4.56 3.069-6.142l0.003-0.003c2.528-2.984 5.209-5.665 8.094-8.111l0.099-0.082 18.435-16.386 26.628-22.531 25.604-22.531c-0.007-0.377-0.011-0.822-0.011-1.268 0-12.262 3.035-23.816 8.395-33.949l-0.191 0.395c4.035-8.14 12.053-13.764 21.435-14.335l0.072-0.003c0.176-0.006 0.382-0.009 0.589-0.009 5.456 0 10.359 2.37 13.733 6.137l0.015 0.017c3.129 3.535 5.060 8.193 5.121 13.301v0.013c0.008 0.255 0.013 0.556 0.013 0.857 0 5.369-1.53 10.381-4.178 14.622l0.068-0.117c-2.694 4.273-5.74 7.969-9.191 11.242l-0.026 0.024c-3.072 3.072-6.145 6.145-10.242 8.193l-5.121 4.097c0.013 9.408 0.757 18.633 2.179 27.632l-0.131-1.004c1.024 8.193 2.048 16.386 2.048 23.556l4.097-2.048c5.121-1.024 9.217-3.072 13.314-4.097l11.266-3.072c5.676-1.796 12.914-3.573 20.297-4.935l1.21-0.186c7.602-1.307 16.358-2.054 25.288-2.054 0.471 0 0.942 0.002 1.412 0.006l-0.072-0.001h5.121c-1.143 0-2.243-0.187-3.27-0.533l0.072 0.021h-5.121c-0.086 0-0.188 0-0.289 0-8.222 0-16.27 0.745-24.082 2.172l0.815-0.124c-7.936 1.659-14.461 3.427-20.842 5.512l1.383-0.391-23.556 7.169-10.242 4.097c0.059 1.324 0.092 2.876 0.092 4.437 0 18.237-4.584 35.404-12.661 50.411l0.279-0.567c-6.544 12.418-19.115 20.88-33.715 21.504l-0.082 0.003zM1148.068 937.536c-10.58 4.739-19.692 10.571-27.802 17.537l0.15-0.126c-5.883 4.603-9.76 11.535-10.238 19.384l-0.004 0.075c0 4.097 2.048 6.145 3.072 6.145 2.561 1.857 5.749 2.998 9.199 3.072h0.018c0.239 0.013 0.518 0.021 0.799 0.021 4.049 0 7.731-1.566 10.476-4.126l-0.009 0.008c3.888-3.321 7.004-7.422 9.128-12.072l0.089-0.218c1.983-5.676 3.433-12.281 4.072-19.122l0.025-0.337c0-4.097 0-7.169 1.024-10.242zM1172.648 818.734c-0.784 0.226-1.466 0.577-2.063 1.035l0.015-0.011c-1.531 2.336-2.615 5.104-3.058 8.081l-0.014 0.112c-0.030 0.307-0.047 0.663-0.047 1.024s0.017 0.717 0.050 1.069l-0.003-0.045c1.452-1.797 2.809-3.808 3.988-5.93l0.109-0.215c0.648-1.512 1.024-3.272 1.024-5.121v0zM1258.677 996.937c-1.683 0.102-3.652 0.16-5.633 0.16s-3.95-0.058-5.902-0.172l0.269 0.013c-4.596-0.482-8.767-1.943-12.421-4.171l0.131 0.074c-3.933-2.136-7.081-5.285-9.158-9.099l-0.059-0.118c-1.951-3.849-3.094-8.39-3.094-13.2 0-0.4 0.008-0.799 0.024-1.195l-0.002 0.057c-0.001-0.138-0.002-0.302-0.002-0.466 0-7.935 1.504-15.519 4.243-22.482l-0.144 0.417c3.593-8.355 7.361-15.419 11.636-22.128l-0.37 0.621c4.097-7.169 9.217-14.338 13.314-21.507l13.314-18.435c5.121-7.169 10.242-15.362 16.386-22.531s10.242-13.314 14.338-18.435 9.217-11.266 14.338-17.411c1.676-2.493 4.486-4.112 7.674-4.112 0.183 0 0.364 0.005 0.544 0.016l-0.025-0.001c0.307-0.036 0.663-0.057 1.024-0.057 5.091 0 9.217 4.127 9.217 9.217 0 0.020 0 0.040 0 0.060v-0.003c-0.309 1.941-1.031 3.672-2.074 5.16l0.026-0.039v1.024l-14.338 17.411c-4.097 6.145-9.217 12.29-14.338 18.435s-10.242 15.362-16.386 22.531l-13.314 16.386c-4.097 7.169-8.193 13.314-12.29 20.483-3.168 5.43-6.265 11.837-8.88 18.486l-0.337 0.973c-2.173 4.482-3.637 9.7-4.087 15.205l-0.010 0.157c-0.024 0.248-0.037 0.536-0.037 0.827 0 1.57 0.393 3.049 1.085 4.344l-0.024-0.049c0.813 0.919 1.848 1.624 3.022 2.033l0.050 0.015c1.514 0.623 3.269 0.997 5.11 1.024h0.011c1.071 0.070 2.323 0.11 3.585 0.11s2.513-0.040 3.755-0.119l-0.17 0.009c9.294-0.395 18.040-2.239 26.182-5.312l-0.578 0.191c11.608-4.172 21.405-8.66 30.758-13.853l-1.057 0.539c11.556-6.25 21.263-12.358 30.551-19.014l-0.85 0.579c10.315-7.582 19.325-14.968 27.936-22.785l-0.284 0.254h1.024c1.447-0.648 3.137-1.026 4.916-1.026 0.072 0 0.144 0.001 0.216 0.002h-0.011c5.656 0 10.242 4.586 10.242 10.242v0c-0.041 2.811-1.209 5.342-3.070 7.167l-0.002 0.002c-9.217 8.193-19.459 15.362-28.676 23.556-9.151 6.904-19.526 13.683-30.348 19.76l-1.401 0.723c-9.275 5.246-20.105 10.095-31.403 13.934l-1.37 0.404c-9.791 3.245-21.063 5.119-32.772 5.121h-0.001zM1345.73 812.589c-0.092 0.001-0.2 0.002-0.308 0.002-5.863 0-11.178-2.346-15.057-6.151l0.003 0.003c-3.802-3.877-6.147-9.191-6.147-15.054 0-0.108 0.001-0.216 0.002-0.324v0.016c-0.079-0.693-0.125-1.497-0.125-2.311 0-5.395 1.986-10.326 5.268-14.101l-0.022 0.026c4.028-3.817 9.481-6.163 15.483-6.163 0.318 0 0.633 0.007 0.948 0.020l-0.045-0.001c6.113 0.199 11.554 2.918 15.344 7.149l0.018 0.020c3.802 3.877 6.147 9.191 6.147 15.054 0 0.108-0.001 0.216-0.002 0.324v-0.016c-0.028 5.956-2.362 11.361-6.155 15.373l0.010-0.011c-3.877 3.802-9.191 6.147-15.054 6.147-0.108 0-0.216-0.001-0.324-0.002h0.016zM1337.537 996.937h-3.072l-2.048-3.072c-2.048-4.097 0-6.145 5.121-13.314 2.048-3.072 6.145-8.193 10.242-14.338l15.362-21.507c6.145-8.193 12.29-16.386 18.435-25.604 8.193-12.29 15.362-23.556 20.483-32.773s9.217-15.362 12.29-21.507c1.784-3.658 3.524-8.069 4.937-12.625l0.184-0.689c0.581-1.823 0.95-3.928 1.023-6.106l0.001-0.039c-0.595-1.195-0.966-2.596-1.023-4.078l-0.001-0.019c0-5.656 4.586-10.242 10.242-10.242v0c2.048 0 11.266 0 11.266 14.338-1.059 10.695-4.349 20.43-9.397 29.007l0.18-0.331-3.072 6.145c11.524-10.195 24.242-19.653 37.726-27.99l1.192-0.686c21.008-13.052 46.395-20.987 73.597-21.505l0.142-0.002c1.173-0.071 2.544-0.111 3.926-0.111 10.458 0 20.377 2.305 29.277 6.435l-0.43-0.179c8.595 4.533 14.355 13.409 14.355 23.631 0 0.334-0.006 0.666-0.018 0.996l0.001-0.048c-0.056 5.55-1.179 10.822-3.174 15.641l0.102-0.279c-3.026 8.209-6.827 15.311-11.454 21.783l0.188-0.276-4.097 4.097-6.145 8.193-8.193 10.242c-2.048 3.072-5.121 7.169-7.169 11.266-8.792 11.084-14.96 24.634-17.346 39.449l-0.065 0.493c-0.004 0.102-0.006 0.223-0.006 0.343 0 2.206 0.775 4.232 2.068 5.818l-0.013-0.017c1.701 1.306 3.862 2.093 6.205 2.093 0.339 0 0.675-0.017 1.006-0.049l-0.042 0.003c8.653-0.368 16.705-2.597 23.877-6.295l-0.321 0.15c13.38-6.934 24.775-14.072 35.54-22.013l-0.719 0.506c6.145-4.097 12.29-9.217 18.435-13.314s10.242-8.193 14.338-12.29 9.217-7.169 14.338-12.29v0h1.024c1.447-0.648 3.137-1.026 4.916-1.026 0.072 0 0.144 0.001 0.216 0.002h-0.011c5.656 0 10.242 4.586 10.242 10.242v0c-0.041 2.811-1.209 5.342-3.070 7.167l-0.002 0.002c-5.121 4.097-10.242 9.217-14.338 13.314l-15.362 12.29c-5.121 4.097-12.29 9.217-18.435 13.314-28.676 21.507-52.232 31.749-69.643 31.749-0.3 0.011-0.652 0.017-1.006 0.017-7.955 0-15.18-3.127-20.512-8.221l0.011 0.011c-5.054-4.854-8.194-11.669-8.194-19.216 0-0.085 0-0.171 0.001-0.256v0.013c1.973-19.898 9.365-37.764 20.662-52.475l-0.179 0.243 8.193-11.266c3.072-4.097 6.145-7.169 8.193-10.242s5.121-7.169 7.169-10.242 5.121-6.145 7.169-9.217c1.5-2.612 2.884-5.658 3.982-8.836l0.115-0.381c1.137-2.396 1.874-5.189 2.045-8.132l0.003-0.061c0-8.193-9.217-12.29-27.652-12.29-12.498 0.015-24.465 2.266-35.529 6.375l0.708-0.23c-13.020 4.131-24.205 8.991-34.772 14.832l0.975-0.494c-11.97 7.608-22.334 15.366-32.071 23.83l0.322-0.274c-10.242 8.193-19.459 17.411-28.676 25.604s-15.362 17.411-22.531 25.604l-17.411 20.483-15.362 21.507c-2.048 3.072-4.097 6.145-7.169 9.217l-4.097 6.145zM1710.33 1002.058c-6.972-0.14-13.679-0.879-20.188-2.168l0.729 0.12c-6.905-1.139-13.101-3.284-18.76-6.303l0.325 0.158c-8.024-4.052-14.383-10.411-18.328-18.201l-0.107-0.234c-3.24-6.893-5.132-14.97-5.132-23.49 0-0.383 0.004-0.766 0.011-1.147l-0.001 0.057c-0.002-0.2-0.003-0.437-0.003-0.674 0-6.657 0.747-13.14 2.162-19.368l-0.111 0.583c1.984-7.482 4.433-13.952 7.45-20.091l-0.281 0.632c3.017-6.805 6.097-12.519 9.55-17.973l-0.333 0.562c1.024-2.048 3.072-4.097 5.121-6.145-2.047-0.988-3.76-2.372-5.098-4.067l-0.023-0.030-2.048-3.072 1.024-3.072c0.070-4.108 2.548-7.619 6.080-9.191l0.065-0.026v-1.024h8.193l1.024 2.048 3.072 2.048v1.024h1.024c14.839-15.681 31.669-29.252 50.142-40.371l1.066-0.595c16.3-10.348 36.014-16.743 57.175-17.407l0.178-0.004c6.649 0.209 12.963 1.317 18.928 3.207l-0.493-0.135c6.224 1.709 11.674 4.161 16.632 7.315l-0.245-0.146c4.995 3.545 9.108 7.984 12.181 13.118l0.109 0.196c3.131 4.946 5.026 10.948 5.121 17.385v0.026c0.001 0.111 0.002 0.243 0.002 0.375 0 9.972-3.476 19.131-9.281 26.334l0.063-0.081c-5.888 7.446-13.029 13.607-21.15 18.247l-0.357 0.188c-7.367 4.247-15.888 7.755-24.886 10.084l-0.718 0.158c-7.676 1.91-16.499 3.028-25.575 3.072h-0.029c-0.955 0.023-2.080 0.036-3.207 0.036-8.636 0-17.096-0.758-25.314-2.211l0.87 0.127c-8.998-1.537-16.593-3.317-24.016-5.494l1.484 0.373c-6.948-1.965-12.732-4.059-18.328-6.502l0.917 0.357-7.169-3.072c-1.757 1.865-3.437 3.869-4.994 5.966l-0.127 0.179c-2.916 4.126-5.649 8.829-7.956 13.772l-0.237 0.566c-2.216 4.818-4.314 10.606-5.952 16.585l-0.193 0.826c-1.247 4.594-1.99 9.879-2.048 15.327v0.035c-0.012 0.308-0.019 0.67-0.019 1.033 0 8.659 3.98 16.388 10.211 21.458l0.051 0.040c7.702 5.249 17.213 8.381 27.455 8.381 1.511 0 3.007-0.068 4.484-0.202l-0.19 0.014c0.448 0.005 0.978 0.008 1.508 0.008 5.966 0 11.845-0.375 17.613-1.103l-0.686 0.071c7.169-1.024 13.314-2.048 19.459-3.072 6.258-1.326 11.407-2.738 16.44-4.406l-1.078 0.309c4.097-2.048 8.193-3.072 11.266-4.097 8.193-3.072 15.362-6.145 23.556-10.242s15.362-8.193 22.531-12.29c9.632-5.324 17.663-10.41 25.382-15.904l-0.802 0.542c8.193-6.145 17.411-13.314 26.628-21.507h1.024c1.449-1.017 3.179-1.739 5.051-2.039l0.070-0.009c2.317 0 4.455 0.769 6.171 2.067l-0.026-0.019c2.493 1.676 4.112 4.486 4.112 7.674 0 0.183-0.005 0.364-0.016 0.544l0.001-0.025c-0.041 2.811-1.209 5.342-3.070 7.167l-0.002 0.002q-16.386 13.314-29.701 22.531c-8.193 6.145-17.411 12.29-25.604 17.411s-16.386 9.217-24.58 12.29-16.386 7.169-24.58 11.266c-5.121 2.048-10.242 3.072-15.362 5.121s-11.266 3.072-17.411 4.097-13.314 2.048-19.459 3.072c-5.286 0.653-11.404 1.026-17.61 1.026-0.29 0-0.58-0.001-0.87-0.002h0.045zM1705.209 882.231c3.072 1.024 6.145 2.048 10.242 3.072s9.217 3.072 14.338 5.121 11.266 2.048 17.411 3.072c4.777 0.658 10.297 1.033 15.904 1.033 0.53 0 1.059-0.003 1.587-0.010l-0.080 0.001c0.305 0.004 0.664 0.006 1.025 0.006 8.020 0 15.777-1.124 23.123-3.223l-0.592 0.145c7.808-2.418 14.595-5.55 20.863-9.437l-0.38 0.22c5.63-3.255 10.385-7.357 14.262-12.191l0.076-0.099c3.056-3.574 4.968-8.206 5.12-13.282l0.001-0.032c0.013-0.231 0.021-0.501 0.021-0.773 0-2.742-0.77-5.304-2.105-7.482l0.036 0.063c-1.845-2.921-4.248-5.324-7.077-7.114l-0.092-0.055c-2.921-2.192-6.328-3.942-10.010-5.060l-0.232-0.061c-3.661-1.246-7.878-1.991-12.263-2.048h-0.027c-7.025 0.25-13.689 1.355-20.031 3.216l0.572-0.144c-8.567 2.059-16.075 4.871-23.118 8.464l0.586-0.271c-10.157 5.526-18.866 11.294-27.035 17.719l0.407-0.308c-8.306 6.241-15.658 12.618-22.539 19.467l0.008-0.008zM1932.571 1004.106c-5.999-0.125-11.621-1.625-16.599-4.196l0.212 0.099c-5.335-2.721-9.568-6.955-12.217-12.134l-0.073-0.156c-1.941-4.063-3.075-8.829-3.075-13.862 0-0.167 0.001-0.335 0.004-0.501v0.025c0.354-12.554 5.789-23.773 14.312-31.725l0.026-0.024c12.473-11.374 27.058-20.7 43.059-27.294l0.98-0.358c-0.206-9.238-0.944-18.094-2.187-26.786l0.139 1.182c0-5.121-1.024-10.242-1.024-15.362l-16.386 14.338-24.58 20.483-25.604 22.531c-1.57 1.279-3.596 2.054-5.802 2.054-0.121 0-0.241-0.002-0.361-0.007l0.017 0.001c-0.307 0.036-0.663 0.057-1.024 0.057-5.091 0-9.217-4.127-9.217-9.217 0-0.020 0-0.040 0-0.060v0.003c-0.029-0.289-0.045-0.624-0.045-0.964 0-2.343 0.787-4.504 2.111-6.229l-0.018 0.024c2.512-2.503 5.185-4.852 7.998-7.024l0.195-0.145 19.459-17.411c8.193-6.145 16.386-14.338 25.604-21.507l26.628-22.531c-0.045-0.953-0.070-2.069-0.070-3.192 0-11.505 2.672-22.386 7.429-32.056l-0.19 0.427c4.195-8.426 12.673-14.154 22.507-14.338h0.024c0.176-0.006 0.382-0.009 0.589-0.009 5.456 0 10.359 2.37 13.733 6.137l0.015 0.017c3.129 3.535 5.060 8.193 5.121 13.301v0.013c-0.134 5.305-1.639 10.232-4.172 14.474l0.075-0.136c-2.759 4.245-5.799 7.935-9.203 11.253l-0.014 0.013c-3.165 3.218-6.506 6.234-10.018 9.044l-0.224 0.173-5.121 4.097c0.068 9.092 0.81 17.955 2.179 26.609l-0.131-1.005c1.053 6.851 1.789 14.986 2.040 23.244l0.008 0.312 5.121-2.048c4.097-1.024 8.193-3.072 12.29-4.097l11.266-3.072c6.046-1.864 13.642-3.645 21.396-4.962l1.135-0.159c7.519-1.304 16.177-2.049 25.010-2.049 0.209 0 0.418 0 0.626 0.001h5.089c0.955-0.325 2.054-0.512 3.197-0.512 5.656 0 10.242 4.586 10.242 10.242s-4.586 10.242-10.242 10.242c-1.143 0-2.243-0.187-3.27-0.533l0.072 0.021h-5.121c-8.001 0.057-15.788 0.799-23.357 2.172l0.825-0.124c-8.262 1.602-15.144 3.374-21.868 5.499l1.385-0.378-23.556 7.169-10.242 4.097c0.052 1.253 0.082 2.724 0.082 4.203 0 18.315-4.579 35.561-12.654 50.655l0.282-0.577c-6.451 13.118-19.538 22.083-34.763 22.53l-0.058 0.001zM1959.2 937.536c-10.58 4.739-19.692 10.571-27.802 17.537l0.15-0.126c-6.28 4.431-10.526 11.384-11.258 19.355l-0.008 0.104c0 4.097 2.048 6.145 3.072 6.145 2.561 1.857 5.749 2.998 9.199 3.072h0.018c0.239 0.013 0.518 0.021 0.799 0.021 4.049 0 7.731-1.566 10.476-4.126l-0.009 0.008c3.888-3.321 7.004-7.422 9.128-12.072l0.089-0.218c2.060-5.701 3.515-12.314 4.079-19.18l0.018-0.279c1.024-4.097 1.024-7.169 2.048-10.242zM1983.779 818.734c-0.841 0.518-1.53 1.207-2.033 2.022l-0.015 0.026c-1.894 2.286-3.315 5.037-4.067 8.052l-0.030 0.141c-0.030 0.307-0.047 0.663-0.047 1.024s0.017 0.717 0.050 1.069l-0.003-0.045c1.938-2.088 3.639-4.442 5.030-6.987l0.091-0.182c0.648-1.512 1.024-3.272 1.024-5.121v0zM2108.726 1004.106c-5.999-0.125-11.621-1.625-16.599-4.196l0.212 0.099c-5.335-2.721-9.568-6.955-12.217-12.134l-0.073-0.156c-1.941-4.063-3.075-8.829-3.075-13.862 0-0.167 0.001-0.335 0.004-0.501v0.025c0.228-12.579 5.695-23.838 14.305-31.719l0.033-0.030c12.455-11.413 27.046-20.745 43.069-27.301l0.97-0.351c-0.288-9.362-1.023-18.215-2.194-26.929l0.146 1.325c0-5.121-1.024-10.242-1.024-15.362l-16.386 14.338-24.58 20.483-25.604 22.531c-1.57 1.279-3.596 2.054-5.802 2.054-0.121 0-0.241-0.002-0.361-0.007l0.017 0.001c-0.307 0.036-0.663 0.057-1.024 0.057-5.091 0-9.217-4.127-9.217-9.217 0-0.020 0-0.040 0-0.060v0.003c-0.029-0.289-0.045-0.624-0.045-0.964 0-2.343 0.787-4.504 2.111-6.229l-0.018 0.024c2.512-2.503 5.185-4.852 7.998-7.024l0.195-0.145 19.459-17.411c8.193-6.145 16.386-14.338 25.604-21.507l27.652-22.531c-0.059-1.081-0.093-2.345-0.093-3.619 0-11.363 2.681-22.099 7.447-31.611l-0.185 0.408c4.035-8.14 12.053-13.764 21.435-14.335l0.072-0.003c0.176-0.006 0.382-0.009 0.589-0.009 5.456 0 10.359 2.37 13.733 6.137l0.015 0.017c3.056 3.574 4.968 8.206 5.12 13.282l0.001 0.032c-0.134 5.305-1.639 10.232-4.172 14.474l0.075-0.136c-2.759 4.245-5.799 7.935-9.203 11.253l-0.014 0.013c-3.145 3.268-6.488 6.287-10.033 9.059l-0.209 0.158-5.121 4.097c0.146 9.166 0.885 18.025 2.183 26.7l-0.135-1.096c1.136 6.953 1.874 15.092 2.045 23.371l0.003 0.185 5.121-2.048c4.097-1.024 8.193-3.072 12.29-4.097l11.266-3.072c6.002-1.839 13.597-3.619 21.345-4.952l1.186-0.169c7.568-1.304 16.283-2.049 25.174-2.049 0.151 0 0.302 0 0.453 0.001h5.098c5.656 0 10.242 4.586 10.242 10.242v0c0 0.017 0 0.037 0 0.057 0 5.091-4.127 9.217-9.217 9.217-0.361 0-0.717-0.021-1.067-0.061l0.043 0.004h-5.121c-8.001 0.057-15.788 0.799-23.357 2.172l0.825-0.124c-8.315 1.63-15.196 3.401-21.926 5.511l1.443-0.39-23.556 7.169-10.242 4.097c0.041 1.113 0.064 2.421 0.064 3.735 0 18.471-4.57 35.875-12.641 51.143l0.287-0.596c-6.451 13.118-19.538 22.083-34.763 22.53l-0.058 0.001zM2135.354 937.536c-10.58 4.739-19.692 10.571-27.802 17.537l0.15-0.126c-6.28 4.431-10.526 11.384-11.258 19.355l-0.008 0.104c0 4.097 2.048 6.145 3.072 6.145 2.561 1.857 5.749 2.998 9.199 3.072h0.018c0.522 0.063 1.127 0.099 1.74 0.099 4.089 0 7.804-1.597 10.558-4.203l-0.007 0.007c3.493-3.384 6.273-7.479 8.11-12.056l0.083-0.234c2.376-5.65 4.172-12.216 5.078-19.063l0.043-0.396c0-4.097 0-7.169 1.024-10.242zM2159.934 818.734c-0.805 0.564-1.484 1.243-2.031 2.022l-0.017 0.026c-1.563 2.327-2.652 5.102-3.061 8.092l-0.011 0.101s0 1.024 0 2.048c1.553-2.073 2.924-4.432 4.010-6.943l0.087-0.226c0.648-1.512 1.024-3.272 1.024-5.121v0zM112.647 757.284h-103.44v-502.86h103.44zM426.038 757.284c-0.484 0.003-1.057 0.005-1.63 0.005-21.233 0-41.855-2.616-61.561-7.543l1.743 0.369 24.58-102.416c10.514 3.9 22.659 6.156 35.331 6.156 0.541 0 1.080-0.004 1.619-0.012l-0.081 0.001c0.422 0.004 0.92 0.007 1.419 0.007 20.194 0 39.421-4.146 56.875-11.632l-0.94 0.359c53.442-23.273 90.128-75.625 90.128-136.548 0-0.242-0.001-0.484-0.002-0.726v0.037c0.009-0.602 0.014-1.312 0.014-2.023 0-19.988-4.15-39.007-11.634-56.243l0.353 0.913c-8.023-17.892-18.707-33.166-31.738-46.076l-0.011-0.011c-13.17-13.172-28.803-23.882-46.149-31.379l-0.962-0.37c-16.919-7.394-36.634-11.697-57.353-11.697s-40.434 4.303-58.299 12.063l0.946-0.366c-18.308 7.867-33.941 18.577-47.111 31.749v0c-13.129 13.195-23.832 28.82-31.372 46.139l-0.377 0.972c-7.124 16.315-11.27 35.325-11.27 55.303 0 0.36 0.001 0.72 0.004 1.080v-0.055 485.45l-102.416-103.44v-382.010c-0.001-0.186-0.001-0.406-0.001-0.627 0-34.548 7.158-67.425 20.071-97.228l-0.611 1.584c13.296-30.978 31.25-57.466 53.295-79.923l-0.039 0.039c22.041-22.412 48.198-40.697 77.258-53.642l1.602-0.638c28.835-12.714 62.456-20.115 97.807-20.115s68.971 7.401 99.4 20.737l-1.593-0.622c60.406 26.524 107.64 73.758 133.517 132.517l0.647 1.647c12.908 28.314 20.447 61.407 20.483 96.258v0.013c0.002 0.342 0.003 0.747 0.003 1.153 0 35.166-7.542 68.571-21.097 98.686l0.612-1.52c-13.621 31.008-31.904 57.493-54.281 79.885l0.001-0.001c-22.315 22.502-48.823 40.806-78.261 53.649l-1.623 0.631c-28.416 12.304-61.507 19.461-96.271 19.461-0.36 0-0.72-0.001-1.080-0.002h0.056zM715.874 124.356l104.464-104.464v737.392h-104.464zM1097.885 359.912c-9.327 2.257-17.517 5.421-25.147 9.494l0.567-0.277c-35.716 15.269-63.591 43.144-78.494 77.9l-0.366 0.96c-7.126 16.641-11.27 36.005-11.27 56.337 0 0.357 0.001 0.714 0.004 1.070v-0.055c-0.011 0.662-0.018 1.443-0.018 2.225 0 19.919 4.151 38.869 11.635 56.032l-0.351-0.905c15.567 35.242 43.366 62.708 77.891 77.468l0.969 0.368c16.551 7.614 35.891 12.124 56.269 12.29h0.060c0.296 0.002 0.646 0.003 0.996 0.003 6.146 0 12.204-0.373 18.154-1.098l-0.715 0.071c6.777-0.812 12.692-1.891 18.481-3.292l-1.070 0.219 24.58 101.391c-17.231 3.311-37.974 5.865-59.070 7.105l-1.355 0.064c-0.731 0.008-1.595 0.013-2.46 0.013-34.272 0-66.872-7.164-96.383-20.075l1.548 0.604c-30.991-13.668-57.468-31.945-79.891-54.287l0.007 0.007c-22.459-22.341-40.756-48.841-53.642-78.251l-0.638-1.633c-12.439-28.879-19.673-62.499-19.673-97.807s7.234-68.927 20.3-99.455l-0.627 1.648c13.524-31.043 31.821-57.543 54.269-79.873l0.011-0.011c22.319-22.177 48.837-40.158 78.254-52.642l1.63-0.614c19.087-8.347 41.229-14.474 64.393-17.296l1.153-0.115M1159.334 257.496c25.329 2.539 48.571 8.702 70.148 17.997l-1.529-0.586c60.349 26.187 107.394 73.564 132.519 132.525l0.621 1.639c12.305 28.221 19.464 61.102 19.464 95.656 0 0.576-0.002 1.152-0.006 1.728v-0.088 250.918h-104.464v-251.942c0.002-0.285 0.003-0.623 0.003-0.961 0-40.77-16.429-77.702-43.029-104.538l0.011 0.011c-13.223-12.761-28.851-23.134-46.124-30.359l-0.987-0.366c-7.661-3.881-16.558-7.059-25.885-9.082l-0.743-0.135M1661.17 361.96c-10.467 2.187-19.711 5.367-28.389 9.536l0.737-0.319c-18.215 7.732-33.822 18.086-47.177 30.787l0.066-0.062c-13.283 13.103-24.011 28.756-31.395 46.172l-0.354 0.939c-7.124 16.639-11.266 35.999-11.266 56.329v0 251.942h-104.464v-251.942c-0.043-1.665-0.068-3.626-0.068-5.591 0-32.76 6.806-63.931 19.081-92.174l-0.579 1.495c13.398-31.089 31.713-57.609 54.253-79.858l0.027-0.026c22.366-22.417 48.858-40.707 78.243-53.636l1.641-0.644c20.631-9.224 44.559-15.748 69.652-18.35l1.015-0.085M1723.644 256.472c24.413 3.36 46.507 9.82 67.089 19.054l-1.543-0.619c31.398 13.538 58.23 31.837 80.93 54.302l-0.022-0.022c22.133 22.344 40.107 48.855 52.635 78.245l0.621 1.639c11.697 26.749 18.503 57.919 18.503 90.68 0 1.966-0.025 3.927-0.073 5.881l0.006-0.289v251.942h-105.488v-251.942c0-0.122 0.001-0.266 0.001-0.41 0-20.188-4.143-39.409-11.625-56.859l0.358 0.94c-7.791-18.336-18.511-33.981-31.739-47.102l-0.010-0.009c-13.013-12.553-28.27-22.888-45.093-30.332l-0.994-0.393c-7.083-3.94-15.287-7.114-23.947-9.095l-0.633-0.122M62.463 75.197c-34.503 0-62.473 27.97-62.473 62.473s27.97 62.473 62.473 62.473c34.503 0 62.473-27.97 62.473-62.473v0c0-34.503-27.97-62.473-62.473-62.473v0z" />
</svg>